<mxfile host="app.diagrams.net" agent="Mozilla/5.0 (Macintosh; Intel Mac OS X 10_15_7) AppleWebKit/537.36 (KHTML, like Gecko) Chrome/127.0.0.0 Safari/537.36" version="24.7.6" pages="2">
  <diagram name="Page-1" id="PGgDLmfhzdB9WM4vafAL">
    <mxGraphModel dx="2522" dy="1309" grid="1" gridSize="10" guides="1" tooltips="1" connect="1" arrows="1" fold="1" page="1" pageScale="1" pageWidth="827" pageHeight="1169" math="0" shadow="0">
      <root>
        <mxCell id="0" />
        <mxCell id="1" parent="0" />
        <mxCell id="snHPMFBs_P8VrZNWPwpD-3" value="" style="edgeStyle=orthogonalEdgeStyle;rounded=0;orthogonalLoop=1;jettySize=auto;html=1;sketch=1;curveFitting=1;jiggle=2;" edge="1" parent="1" source="snHPMFBs_P8VrZNWPwpD-1" target="snHPMFBs_P8VrZNWPwpD-2">
          <mxGeometry relative="1" as="geometry" />
        </mxCell>
        <mxCell id="snHPMFBs_P8VrZNWPwpD-1" value="&lt;font data-font-src=&quot;https://fonts.googleapis.com/css?family=Architects+Daughter&quot; face=&quot;Architects Daughter&quot;&gt;Build OS Image&lt;/font&gt;" style="rounded=1;whiteSpace=wrap;html=1;sketch=1;curveFitting=1;jiggle=2;" vertex="1" parent="1">
          <mxGeometry x="90" y="130" width="130" height="60" as="geometry" />
        </mxCell>
        <mxCell id="snHPMFBs_P8VrZNWPwpD-5" value="" style="edgeStyle=orthogonalEdgeStyle;rounded=0;orthogonalLoop=1;jettySize=auto;html=1;sketch=1;curveFitting=1;jiggle=2;" edge="1" parent="1" source="snHPMFBs_P8VrZNWPwpD-2" target="snHPMFBs_P8VrZNWPwpD-4">
          <mxGeometry relative="1" as="geometry" />
        </mxCell>
        <mxCell id="snHPMFBs_P8VrZNWPwpD-2" value="Image gallery version" style="rounded=1;whiteSpace=wrap;html=1;sketch=1;curveFitting=1;jiggle=2;fontFamily=Architects Daughter;fontSource=https%3A%2F%2Ffonts.googleapis.com%2Fcss%3Ffamily%3DArchitects%2BDaughter;" vertex="1" parent="1">
          <mxGeometry x="300" y="130" width="130" height="60" as="geometry" />
        </mxCell>
        <mxCell id="snHPMFBs_P8VrZNWPwpD-7" value="" style="edgeStyle=orthogonalEdgeStyle;rounded=0;orthogonalLoop=1;jettySize=auto;html=1;sketch=1;curveFitting=1;jiggle=2;" edge="1" parent="1" source="snHPMFBs_P8VrZNWPwpD-4" target="snHPMFBs_P8VrZNWPwpD-6">
          <mxGeometry relative="1" as="geometry" />
        </mxCell>
        <mxCell id="snHPMFBs_P8VrZNWPwpD-4" value="Remove session host" style="rounded=1;whiteSpace=wrap;html=1;sketch=1;curveFitting=1;jiggle=2;fontFamily=Architects Daughter;fontSource=https%3A%2F%2Ffonts.googleapis.com%2Fcss%3Ffamily%3DArchitects%2BDaughter;" vertex="1" parent="1">
          <mxGeometry x="510" y="130" width="130" height="60" as="geometry" />
        </mxCell>
        <mxCell id="snHPMFBs_P8VrZNWPwpD-9" value="" style="edgeStyle=orthogonalEdgeStyle;rounded=0;orthogonalLoop=1;jettySize=auto;html=1;sketch=1;curveFitting=1;jiggle=2;" edge="1" parent="1" source="snHPMFBs_P8VrZNWPwpD-6" target="snHPMFBs_P8VrZNWPwpD-8">
          <mxGeometry relative="1" as="geometry" />
        </mxCell>
        <mxCell id="snHPMFBs_P8VrZNWPwpD-6" value="Remove session host from Intune" style="rounded=1;whiteSpace=wrap;html=1;sketch=1;curveFitting=1;jiggle=2;fontFamily=Architects Daughter;fontSource=https%3A%2F%2Ffonts.googleapis.com%2Fcss%3Ffamily%3DArchitects%2BDaughter;" vertex="1" parent="1">
          <mxGeometry x="510" y="260" width="130" height="60" as="geometry" />
        </mxCell>
        <mxCell id="snHPMFBs_P8VrZNWPwpD-11" value="" style="edgeStyle=orthogonalEdgeStyle;rounded=0;orthogonalLoop=1;jettySize=auto;html=1;sketch=1;curveFitting=1;jiggle=2;" edge="1" parent="1" source="snHPMFBs_P8VrZNWPwpD-8" target="snHPMFBs_P8VrZNWPwpD-10">
          <mxGeometry relative="1" as="geometry" />
        </mxCell>
        <mxCell id="snHPMFBs_P8VrZNWPwpD-8" value="Deploy new VM" style="rounded=1;whiteSpace=wrap;html=1;sketch=1;curveFitting=1;jiggle=2;fontFamily=Architects Daughter;fontSource=https%3A%2F%2Ffonts.googleapis.com%2Fcss%3Ffamily%3DArchitects%2BDaughter;" vertex="1" parent="1">
          <mxGeometry x="300" y="260" width="130" height="60" as="geometry" />
        </mxCell>
        <mxCell id="snHPMFBs_P8VrZNWPwpD-13" value="" style="edgeStyle=orthogonalEdgeStyle;rounded=0;orthogonalLoop=1;jettySize=auto;html=1;sketch=1;curveFitting=1;jiggle=2;" edge="1" parent="1" source="snHPMFBs_P8VrZNWPwpD-10" target="snHPMFBs_P8VrZNWPwpD-12">
          <mxGeometry relative="1" as="geometry" />
        </mxCell>
        <mxCell id="snHPMFBs_P8VrZNWPwpD-10" value="AD Join" style="rounded=1;whiteSpace=wrap;html=1;sketch=1;curveFitting=1;jiggle=2;fontFamily=Architects Daughter;fontSource=https%3A%2F%2Ffonts.googleapis.com%2Fcss%3Ffamily%3DArchitects%2BDaughter;" vertex="1" parent="1">
          <mxGeometry x="90" y="260" width="130" height="60" as="geometry" />
        </mxCell>
        <mxCell id="snHPMFBs_P8VrZNWPwpD-15" value="" style="edgeStyle=orthogonalEdgeStyle;rounded=0;orthogonalLoop=1;jettySize=auto;html=1;sketch=1;curveFitting=1;jiggle=2;" edge="1" parent="1" source="snHPMFBs_P8VrZNWPwpD-12" target="snHPMFBs_P8VrZNWPwpD-14">
          <mxGeometry relative="1" as="geometry" />
        </mxCell>
        <mxCell id="snHPMFBs_P8VrZNWPwpD-12" value="Wait for sync" style="rounded=1;whiteSpace=wrap;html=1;sketch=1;curveFitting=1;jiggle=2;fontFamily=Architects Daughter;fontSource=https%3A%2F%2Ffonts.googleapis.com%2Fcss%3Ffamily%3DArchitects%2BDaughter;" vertex="1" parent="1">
          <mxGeometry x="90" y="400" width="130" height="60" as="geometry" />
        </mxCell>
        <mxCell id="snHPMFBs_P8VrZNWPwpD-17" value="" style="edgeStyle=orthogonalEdgeStyle;rounded=0;orthogonalLoop=1;jettySize=auto;html=1;sketch=1;curveFitting=1;jiggle=2;" edge="1" parent="1" source="snHPMFBs_P8VrZNWPwpD-14" target="snHPMFBs_P8VrZNWPwpD-16">
          <mxGeometry relative="1" as="geometry" />
        </mxCell>
        <mxCell id="snHPMFBs_P8VrZNWPwpD-14" value="Restart" style="rounded=1;whiteSpace=wrap;html=1;sketch=1;curveFitting=1;jiggle=2;fontFamily=Architects Daughter;fontSource=https%3A%2F%2Ffonts.googleapis.com%2Fcss%3Ffamily%3DArchitects%2BDaughter;" vertex="1" parent="1">
          <mxGeometry x="300" y="400" width="130" height="60" as="geometry" />
        </mxCell>
        <mxCell id="snHPMFBs_P8VrZNWPwpD-16" value="Add to AVD Host pool" style="rounded=1;whiteSpace=wrap;html=1;sketch=1;curveFitting=1;jiggle=2;fontFamily=Architects Daughter;fontSource=https%3A%2F%2Ffonts.googleapis.com%2Fcss%3Ffamily%3DArchitects%2BDaughter;" vertex="1" parent="1">
          <mxGeometry x="510" y="400" width="130" height="60" as="geometry" />
        </mxCell>
      </root>
    </mxGraphModel>
  </diagram>
  <diagram id="YnIKrpZ0EFSwjvwB5cYj" name="Page-2">
    <mxGraphModel dx="2522" dy="1309" grid="1" gridSize="10" guides="1" tooltips="1" connect="1" arrows="1" fold="1" page="1" pageScale="1" pageWidth="827" pageHeight="1169" math="0" shadow="0">
      <root>
        <mxCell id="0" />
        <mxCell id="1" parent="0" />
        <mxCell id="M9tZr0yQ1U2JP0jmh5cH-1" value="" style="edgeStyle=orthogonalEdgeStyle;rounded=0;orthogonalLoop=1;jettySize=auto;html=1;sketch=1;curveFitting=1;jiggle=2;" edge="1" parent="1" source="M9tZr0yQ1U2JP0jmh5cH-2" target="M9tZr0yQ1U2JP0jmh5cH-4">
          <mxGeometry relative="1" as="geometry" />
        </mxCell>
        <mxCell id="M9tZr0yQ1U2JP0jmh5cH-2" value="&lt;font data-font-src=&quot;https://fonts.googleapis.com/css?family=Architects+Daughter&quot; face=&quot;Architects Daughter&quot;&gt;Build OS Image&lt;/font&gt;" style="rounded=1;whiteSpace=wrap;html=1;sketch=1;curveFitting=1;jiggle=2;" vertex="1" parent="1">
          <mxGeometry x="90" y="130" width="130" height="60" as="geometry" />
        </mxCell>
        <mxCell id="M9tZr0yQ1U2JP0jmh5cH-3" value="" style="edgeStyle=orthogonalEdgeStyle;rounded=0;orthogonalLoop=1;jettySize=auto;html=1;sketch=1;curveFitting=1;jiggle=2;" edge="1" parent="1" source="M9tZr0yQ1U2JP0jmh5cH-4" target="M9tZr0yQ1U2JP0jmh5cH-6">
          <mxGeometry relative="1" as="geometry" />
        </mxCell>
        <mxCell id="M9tZr0yQ1U2JP0jmh5cH-4" value="Image gallery version" style="rounded=1;whiteSpace=wrap;html=1;sketch=1;curveFitting=1;jiggle=2;fontFamily=Architects Daughter;fontSource=https%3A%2F%2Ffonts.googleapis.com%2Fcss%3Ffamily%3DArchitects%2BDaughter;" vertex="1" parent="1">
          <mxGeometry x="300" y="130" width="130" height="60" as="geometry" />
        </mxCell>
        <mxCell id="M9tZr0yQ1U2JP0jmh5cH-6" value="trigger host pool update" style="rounded=1;whiteSpace=wrap;html=1;sketch=1;curveFitting=1;jiggle=2;fontFamily=Architects Daughter;fontSource=https%3A%2F%2Ffonts.googleapis.com%2Fcss%3Ffamily%3DArchitects%2BDaughter;" vertex="1" parent="1">
          <mxGeometry x="510" y="130" width="130" height="60" as="geometry" />
        </mxCell>
      </root>
    </mxGraphModel>
  </diagram>
</mxfile>
